<?xml version="1.0" encoding="UTF-8" standalone="no"?>
<!-- Created with Inkscape (http://www.inkscape.org/) -->

<svg
   width="100.1181mm"
   height="108.20943mm"
   viewBox="0 0 100.1181 108.20943"
   version="1.1"
   id="svg5"
   xml:space="preserve"
   sodipodi:docname="square_logo.svg"
   inkscape:version="1.4 (e7c3feb1, 2024-10-09)"
   inkscape:export-filename="Dokumenty/logo_zab 2_1.png"
   inkscape:export-xdpi="96"
   inkscape:export-ydpi="96"
   xmlns:inkscape="http://www.inkscape.org/namespaces/inkscape"
   xmlns:sodipodi="http://sodipodi.sourceforge.net/DTD/sodipodi-0.dtd"
   xmlns:xlink="http://www.w3.org/1999/xlink"
   xmlns="http://www.w3.org/2000/svg"
   xmlns:svg="http://www.w3.org/2000/svg"><sodipodi:namedview
     id="namedview7"
     pagecolor="#ffffff"
     bordercolor="#111111"
     borderopacity="1"
     inkscape:showpageshadow="0"
     inkscape:pageopacity="0"
     inkscape:pagecheckerboard="1"
     inkscape:deskcolor="#d1d1d1"
     inkscape:document-units="mm"
     showgrid="false"
     inkscape:zoom="0.70919234"
     inkscape:cx="102.93399"
     inkscape:cy="149.4658"
     inkscape:window-width="1264"
     inkscape:window-height="847"
     inkscape:window-x="217"
     inkscape:window-y="25"
     inkscape:window-maximized="0"
     inkscape:current-layer="layer2" /><defs
     id="defs2"><inkscape:path-effect
       effect="powerstroke"
       id="path-effect3903"
       is_visible="true"
       lpeversion="1"
       offset_points="0.2,0.12737093 | 4.8696678,0.56072214 | 9.8,0.12737093"
       not_jump="false"
       sort_points="true"
       interpolator_type="CentripetalCatmullRom"
       interpolator_beta="0.2"
       start_linecap_type="zerowidth"
       linejoin_type="round"
       miter_limit="4"
       scale_width="6"
       end_linecap_type="zerowidth"
       message="" /><inkscape:path-effect
       effect="powerstroke"
       id="path-effect3901"
       is_visible="true"
       lpeversion="1"
       offset_points="0.2,0.17030097 | 5.8732165,0.61300026 | 10.8,0.17030097"
       not_jump="false"
       sort_points="true"
       interpolator_type="CentripetalCatmullRom"
       interpolator_beta="0.2"
       start_linecap_type="zerowidth"
       linejoin_type="round"
       miter_limit="4"
       scale_width="5"
       end_linecap_type="zerowidth"
       message="" /><linearGradient
       inkscape:collect="always"
       id="linearGradient3897"><stop
         style="stop-color:#820039;stop-opacity:1;"
         offset="0"
         id="stop3893" /><stop
         style="stop-color:#820039;stop-opacity:1;"
         offset="1"
         id="stop3895" /></linearGradient><linearGradient
       inkscape:collect="always"
       id="linearGradient985"><stop
         style="stop-color:#82a639;stop-opacity:1;"
         offset="0"
         id="stop981" /><stop
         style="stop-color:#82a639;stop-opacity:1;"
         offset="1"
         id="stop983" /></linearGradient><rect
       x="124.18611"
       y="851.00165"
       width="722.24017"
       height="245.16632"
       id="rect370" /><rect
       x="631.74231"
       y="276.48773"
       width="893.87195"
       height="246.98074"
       id="rect4503" /><rect
       x="208.97328"
       y="131.8139"
       width="385.79681"
       height="194.50591"
       id="rect4497" /><inkscape:path-effect
       effect="powerstroke"
       id="path-effect4394"
       is_visible="true"
       lpeversion="1"
       offset_points="0.23207132,0.49012738 | 1.5196096,1.7260587 | 2.6303556,0.29444997"
       not_jump="false"
       sort_points="true"
       interpolator_type="CentripetalCatmullRom"
       interpolator_beta="0.2"
       start_linecap_type="zerowidth"
       linejoin_type="round"
       miter_limit="4"
       scale_width="1"
       end_linecap_type="zerowidth"
       message="" /><inkscape:path-effect
       effect="powerstroke"
       id="path-effect4372"
       is_visible="true"
       lpeversion="1"
       offset_points="0.2,0.097057529 | 3.0165487,0.60275765 | 5.8,0.097057529"
       not_jump="false"
       sort_points="true"
       interpolator_type="CentripetalCatmullRom"
       interpolator_beta="0.2"
       start_linecap_type="zerowidth"
       linejoin_type="round"
       miter_limit="4"
       scale_width="3.9"
       end_linecap_type="zerowidth"
       message="" /><inkscape:path-effect
       effect="powerstroke"
       id="path-effect4370"
       is_visible="true"
       lpeversion="1"
       offset_points="0.17142857,0.097057529 | 3.0253071,0.57666072 | 5.2794381,0.26046031"
       not_jump="false"
       sort_points="true"
       interpolator_type="CentripetalCatmullRom"
       interpolator_beta="0.2"
       start_linecap_type="zerowidth"
       linejoin_type="round"
       miter_limit="4"
       scale_width="3.9"
       end_linecap_type="zerowidth"
       message="" /><inkscape:path-effect
       effect="powerstroke"
       id="path-effect4345"
       is_visible="true"
       lpeversion="1"
       offset_points="0.53254509,0.16731309 | 5.9983333,0.38880452 | 11.585598,0.16374661"
       not_jump="false"
       sort_points="true"
       interpolator_type="CentripetalCatmullRom"
       interpolator_beta="0.2"
       start_linecap_type="zerowidth"
       linejoin_type="round"
       miter_limit="4"
       scale_width="3.9"
       end_linecap_type="zerowidth"
       message="" /><inkscape:path-effect
       effect="powerstroke"
       id="path-effect4343"
       is_visible="true"
       lpeversion="1"
       offset_points="0.15,0.26458335 | 1.5017616,0.77178416 | 3,0.0041581392"
       not_jump="false"
       sort_points="true"
       interpolator_type="CentripetalCatmullRom"
       interpolator_beta="0.2"
       start_linecap_type="zerowidth"
       linejoin_type="round"
       miter_limit="4"
       scale_width="3.9"
       end_linecap_type="zerowidth"
       message="" /><inkscape:path-effect
       effect="powerstroke"
       id="path-effect4341"
       is_visible="true"
       lpeversion="1"
       offset_points="0.29583306,0.17082336 | 1.0143816,0.70341861 | 1.7133979,0.18760271"
       not_jump="false"
       sort_points="true"
       interpolator_type="CentripetalCatmullRom"
       interpolator_beta="0.2"
       start_linecap_type="zerowidth"
       linejoin_type="round"
       miter_limit="4"
       scale_width="3.9"
       end_linecap_type="zerowidth"
       message="" /><inkscape:path-effect
       effect="powerstroke"
       id="path-effect4272"
       is_visible="true"
       lpeversion="1"
       offset_points="0.2,1 | 9.5,1 | 17.8,1"
       not_jump="false"
       sort_points="true"
       interpolator_type="CentripetalCatmullRom"
       interpolator_beta="0.42056075"
       start_linecap_type="zerowidth"
       linejoin_type="round"
       miter_limit="9.5"
       scale_width="1.3"
       end_linecap_type="zerowidth"
       message="" /><inkscape:path-effect
       effect="powerstroke"
       id="path-effect4394-9"
       is_visible="true"
       lpeversion="1"
       offset_points="0.23207132,0.49012738 | 1.5196096,1.7260587 | 2.6303556,0.29444997"
       not_jump="false"
       sort_points="true"
       interpolator_type="CentripetalCatmullRom"
       interpolator_beta="0.2"
       start_linecap_type="zerowidth"
       linejoin_type="round"
       miter_limit="4"
       scale_width="1"
       end_linecap_type="zerowidth"
       message="" /><linearGradient
       inkscape:collect="always"
       xlink:href="#linearGradient985"
       id="linearGradient987"
       x1="79.509331"
       y1="210.94894"
       x2="79.588234"
       y2="100.3852"
       gradientUnits="userSpaceOnUse"
       gradientTransform="matrix(0.86475594,0,0,0.80589848,14.341784,-7.3672439)" /><linearGradient
       inkscape:collect="always"
       xlink:href="#linearGradient3897"
       id="linearGradient3899"
       x1="136.9726"
       y1="212.61908"
       x2="135.2182"
       y2="83.114136"
       gradientUnits="userSpaceOnUse"
       gradientTransform="matrix(0.86475594,0,0,0.80589848,14.341784,-7.3672439)" /></defs><g
     inkscape:groupmode="layer"
     id="layer2"
     inkscape:label="Ząb"
     transform="translate(-57.368965,-56.980512)"><path
       id="path4338"
       style="display:none;fill:url(#linearGradient3899);fill-opacity:1;fill-rule:nonzero;stroke:none;stroke-width:0.254742;stroke-linecap:round;stroke-linejoin:round;stroke-dasharray:none;stroke-opacity:1;paint-order:normal"
       d="m 106.63818,124.86691 c 8.03967,-0.13531 9.58905,3.63143 10.02554,6.55199 0.96934,6.48574 -2.2109,22.8351 -2.2109,22.8351 0,0 -4.06129,12.35683 12.74411,6.04425 13.53163,-5.08287 15.74393,-24.18416 15.74393,-24.18416 0,0 0.35252,-12.68248 -0.34733,-20.22995 -0.1993,-2.14933 1.43154,-4.87878 3.74086,-8.39955 2.06539,-3.62874 5.91408,-7.96556 7.51869,-11.75988 1.09589,-2.59137 2.01512,-6.80171 1.53608,-11.32858 -0.21882,-5.26282 -2.53488,-11.69094 -7.54679,-17.86305 -9.79782,-12.06591 -36.31941,-1.36459 -36.31941,-1.36459"
       sodipodi:nodetypes="cscscscscsc"
       inkscape:path-effect="#path-effect3903"
       inkscape:original-d="m 106.63818,124.86691 c 8.03967,-0.13531 9.58905,3.63143 10.02554,6.55199 0.96934,6.48574 -2.2109,22.8351 -2.2109,22.8351 0,0 -4.06129,12.35683 12.74411,6.04425 13.53163,-5.08287 15.74393,-24.18416 15.74393,-24.18416 0,0 0.35252,-12.68248 -0.34733,-20.22995 -0.1993,-2.14933 1.43154,-4.87878 3.74086,-8.39955 2.06539,-3.62874 5.91408,-7.96556 7.51869,-11.75988 1.09589,-2.59137 2.01512,-6.80171 1.53608,-11.32858 -0.21882,-5.26282 -2.53488,-11.69094 -7.54679,-17.86305 -9.79782,-12.06591 -36.31941,-1.36459 -36.31941,-1.36459" /><path
       id="path4331"
       style="fill:url(#linearGradient987);fill-opacity:1;fill-rule:nonzero;stroke:none;stroke-width:0.340602;stroke-linecap:round;stroke-linejoin:round;stroke-dasharray:none;stroke-opacity:1;paint-order:normal"
       d="m 129.84262,71.21089 c -0.71627,0.248562 -2.19299,0.569213 -4.23481,0.658331 -0.7276,0.03176 -1.58032,0.03598 -2.55747,-0.01684 -0.51602,-0.02789 -1.09098,-0.07453 -1.72623,-0.151189 -2.30284,-0.277881 -5.1422,-0.920987 -8.60731,-2.246208 -2.5255,-0.965869 -5.04105,-2.164666 -7.40768,-3.463782 -1.00939,-0.554083 -1.92783,-1.091501 -2.7286,-1.581263 -0.75157,-0.459674 -1.35752,-0.85159 -1.81037,-1.15328 -2.193214,-1.354011 -4.859609,-2.811102 -7.793907,-3.97758 -2.707012,-1.076124 -5.775512,-1.958628 -8.997298,-2.219803 -3.040872,-0.246509 -6.300133,0.05426 -9.537785,1.349617 -3.097557,1.239303 -6.1179,3.366726 -8.865686,6.692402 -2.587638,3.075831 -4.501132,6.314336 -5.834757,9.543013 -1.270053,3.074769 -1.979156,6.057653 -2.264889,8.731174 a 2.2657082e-4,0.02724496 5.1002279 0 0 -0.0029,0.03625 c -0.239079,2.563957 -0.04759,5.096007 0.389263,7.374816 0.217294,1.133507 0.496231,2.209202 0.815801,3.199452 0.31973,0.990746 0.684285,1.908816 1.076412,2.722025 0.593455,1.211865 1.358696,2.373577 2.133018,3.443047 0.778205,1.07483 1.644285,2.16162 2.41126,3.1386 0.808692,1.03012 1.526867,1.96235 2.135995,2.86421 0.599455,0.88753 1.023058,1.64492 1.285661,2.30264 0.06845,0.19503 0.142436,0.35482 0.180626,0.43584 0.05238,0.11114 0.107423,0.21925 0.150501,0.30274 0.09436,0.18288 0.184651,0.35179 0.281027,0.54036 0.198491,0.38837 0.417278,0.8473 0.618345,1.3935 0.321709,0.87393 0.575029,1.91135 0.62343,3.11462 0.01686,0.41904 0.0094,0.87198 -0.03346,1.35801 -0.03391,0.37722 -0.05627,0.79372 -0.07044,1.23386 -0.01409,0.43775 -0.02058,0.9153 -0.02082,1.42363 -4.64e-4,1.00017 0.02331,2.14435 0.06465,3.37556 0.08063,2.40146 0.228825,5.15303 0.396915,7.80613 0.320041,5.05146 0.718167,9.78673 0.752584,9.79599 a 3.8660398,2.4073372 10.817282 0 0 2.926852,2.70341 c 0,-0.0155 0.05919,0.9596 0.361829,2.53389 l -2.834923,-2.34688 c 0.343949,1.71417 0.950777,4.07187 2.022494,6.62008 1.068208,2.53987 2.615799,5.31066 4.860855,7.82261 2.260171,2.52886 5.202336,4.76598 8.997455,6.23278 2.212699,0.85749 4.121562,1.45845 5.771499,1.84259 1.652888,0.38481 3.091598,0.56284 4.34351,0.54324 1.270556,-0.0199 2.400916,-0.24079 3.386148,-0.71588 0.49821,-0.24025 0.94598,-0.54081 1.3363,-0.89863 0.39225,-0.35958 0.7078,-0.75988 0.95456,-1.18138 0.49458,-0.84482 0.68255,-1.71975 0.73273,-2.46425 0.0506,-0.75111 -0.0333,-1.44591 -0.14489,-1.99999 -0.21572,-1.07135 -0.57052,-1.82246 -0.66491,-1.96637 -0.33538,-1.35334 -1.25136,-5.7262 -1.97373,-10.32333 -0.47869,-3.04635 -0.872859,-6.13664 -1.073719,-8.89281 -0.105645,-1.44964 -0.155185,-2.77076 -0.14172,-3.93306 0.01418,-1.22382 0.09768,-2.21564 0.238661,-2.98273 0.04499,-0.50834 0.265358,-1.15895 0.640818,-1.83705 0.44083,-0.79616 1.04475,-1.54623 1.72946,-2.20106 1.20697,-1.15427 2.49704,-1.86514 3.51586,-2.35241 1.43756,-0.68753 2.8658,-1.2993 3.30514,-1.41513 -0.50492,-0.0887 -1.90296,-0.5397 -3.80745,-0.21211 -1.24509,0.21416 -2.94494,0.75857 -4.64968,1.92482 -0.971462,0.66459 -1.905306,1.5072 -2.67841,2.50579 -0.644217,0.83212 -1.197199,1.80274 -1.489293,2.81837 -0.263178,1.04173 -0.419462,2.26715 -0.495742,3.62134 -0.07324,1.30028 -0.07367,2.73923 -0.01687,4.2727 0.107948,2.91465 0.421313,6.13279 0.815095,9.26346 0.721059,5.7326 1.732173,11.07307 1.662713,11.11914 a 0.4122458,0.17260319 49.70455 0 0 0.141473,0.4466 c -0.07786,-0.0881 0.0955,0.40998 0.155849,0.96423 0.03074,0.28233 0.03094,0.53924 -0.0042,0.74224 -0.03285,0.18989 -0.09107,0.27499 -0.113668,0.28259 -0.01122,0.004 -0.01345,-0.005 -0.02692,-0.003 -0.0134,0.002 -0.04019,0.0164 -0.117689,0.0444 -0.153442,0.0555 -0.520213,0.16048 -1.240338,0.1497 -0.716809,-0.0107 -1.714877,-0.13521 -3.07594,-0.47704 -1.349028,-0.33881 -3.009442,-0.87964 -5.042891,-1.69373 -2.902025,-1.1693 -5.116779,-2.90886 -6.823582,-4.87904 -1.71331,-1.9777 -2.925298,-4.20156 -3.776622,-6.32184 -0.853604,-2.12595 -1.327612,-4.1056 -1.582535,-5.5433 a 2.4452701,0.89072773 59.634442 0 0 -2.834922,-2.34688 c -0.302641,-1.61049 -0.361829,-2.61922 -0.361829,-2.63473 l 2.926852,2.70341 c 0.03261,0.009 -0.310365,-4.66921 -0.587587,-9.68769 -0.145162,-2.62784 -0.271577,-5.31289 -0.334789,-7.63432 -0.03239,-1.1896 -0.04753,-2.26058 -0.04142,-3.16936 0.0031,-0.46078 0.01161,-0.87182 0.02549,-1.23 0.01414,-0.36486 0.03323,-0.65831 0.05521,-0.88342 0.07258,-0.75872 0.08963,-1.47694 0.06572,-2.15144 -0.06907,-1.94801 -0.483348,-3.63498 -1.009248,-5.0302 -0.32692,-0.86732 -0.678186,-1.5724 -0.962315,-2.09801 -0.129473,-0.23952 -0.256634,-0.46233 -0.319689,-0.57267 -0.03332,-0.0583 -0.05443,-0.0961 -0.05332,-0.0895 0.0011,0.007 0.02538,0.044 0.08733,0.23666 l -0.05892,-0.16157 c -0.508075,-1.25758 -1.231538,-2.4493 -2.006506,-3.5546 -0.760462,-1.08462 -1.617063,-2.15058 -2.446891,-3.1662 -0.831191,-1.017291 -1.622376,-1.968532 -2.339856,-2.91195 -0.708704,-0.931877 -1.282871,-1.776067 -1.695322,-2.55501 -0.289829,-0.536872 -0.588444,-1.196739 -0.86915,-1.958256 -0.279416,-0.758019 -0.535689,-1.602091 -0.747021,-2.506481 -0.42709,-1.827723 -0.656652,-3.840565 -0.558104,-5.847702 l -0.0029,0.03624 c 0.140529,-2.181997 0.629062,-4.712497 1.616366,-7.388305 1.034515,-2.803764 2.585438,-5.684882 4.767486,-8.482751 2.245555,-2.823101 4.629417,-4.549435 6.989358,-5.567349 2.484397,-1.071595 5.064747,-1.409759 7.616264,-1.282047 2.719314,0.13611 5.417818,0.802321 7.92929,1.701487 2.710191,0.970312 5.238274,2.225639 7.378685,3.4215 0.471396,0.242716 1.150712,0.608256 1.954352,1.026387 0.8694,0.452344 1.85033,0.949508 2.93818,1.46734 2.54631,1.212083 5.22946,2.322116 7.95517,3.180166 3.73219,1.174885 6.82201,1.6487 9.33327,1.693301 0.6919,0.01229 1.31699,-0.0085 1.87609,-0.05039 1.06256,-0.07968 1.96809,-0.247576 2.72913,-0.449585 2.13159,-0.565803 3.43154,-1.498128 4.04094,-1.894771 z"
       sodipodi:nodetypes="csscsczcscsc"
       inkscape:path-effect="#path-effect3901"
       inkscape:original-d="m 129.84262,71.21089 c -10.43923,5.1138 -26.3845,-4.3653 -29.949805,-6.46334 -9.191187,-5.40862 -22.756319,-10.28038 -32.554138,1.78553 -4.898909,6.03296 -6.823486,12.3105 -7.241744,17.07262 -0.339948,4.59882 0.860477,9.09641 2.227877,11.80437 2.002186,3.96506 6.689421,8.09697 8.242993,12.00831 0.198722,0.59702 2.469287,3.61731 2.019717,8.46572 -0.44957,4.8484 1.002993,23.11998 1.002993,23.11998 0,0 0.973715,16.0113 14.393598,21.29413 16.950019,6.67252 12.583279,-3.43465 12.583279,-3.43465 0,0 -4.177835,-20.02029 -2.521505,-27.4179 0.64021,-2.85936 4.441075,-7.14991 10.908055,-7.42126" /><path
       style="fill:#82a639;stroke:#000000;stroke-width:0;stroke-linecap:round;stroke-linejoin:round"
       d="m 70.537842,138.96106 0.805569,4.43064 3.574724,2.8195 1.913231,-4.22925 -0.553831,-5.43761 -4.027855,-3.02089 z"
       id="path1" /><path
       style="fill:#82a639;fill-opacity:1;stroke:none;stroke-width:0;stroke-linecap:round;stroke-linejoin:round;stroke-opacity:1"
       d="m 111.72771,64.328072 c 6.53255,-2.403798 8.64901,-4.108863 19.58862,-4.836695 7.73237,-0.514448 10.13717,0.142104 14.26826,2.660184 4.09611,2.496755 6.89801,6.974088 8.82697,11.366238 2.43268,5.539108 3.52901,11.636757 2.90201,17.653944 -0.42199,4.049759 -2.04386,8.18096 -4.35302,11.608077 -2.52648,3.74964 -5.91039,8.05453 -7.25504,12.09174 -1.24001,3.72304 1.61414,14.35655 0.48366,21.40239 -0.95525,5.95371 -2.67067,12.05263 -6.04587,17.04935 -2.31765,3.4311 -5.67998,6.23184 -9.31064,8.22239 -3.71382,2.03615 -7.99221,3.86177 -12.21266,3.5066 -2.22755,-0.18746 -4.7663,-1.06903 -6.04587,-2.90202 -1.69193,-2.42368 -1.03278,-5.87703 -0.84642,-8.82697 0.26572,-4.20603 2.33546,-8.14279 2.7811,-12.33357 0.43049,-4.04827 1.99372,-8.73387 -0.12092,-12.21267 -1.51725,-2.49603 -8.29095,-3.32442 -7.73872,-4.11119 0.99596,-1.41898 5.19945,-0.12092 5.19945,-0.12092 0,0 3.92711,1.51963 5.07854,3.14386 1.40828,1.98655 1.36104,4.70819 1.57192,7.13413 0.32144,3.69769 -0.15196,7.42762 -0.48367,11.1244 -0.31992,3.56541 -1.68482,7.06864 -1.45101,10.64073 0.06,0.91715 -0.16398,2.42872 0.72551,2.66019 3.37918,0.87935 7.93473,-1.02716 11.36624,-2.90202 2.12725,-1.16225 3.95613,-2.95389 5.32036,-4.95761 2.97391,-4.36793 5.3624,-9.4862 5.80404,-14.75193 0.54558,-6.505 -2.64528,-15.16047 -0.7255,-22.36973 2.13287,-8.00948 10.31219,-13.75817 13.05908,-21.160549 1.86583,-5.02807 0.97063,-10.919865 -0.48367,-16.082017 -1.23365,-4.378926 -3.64938,-8.592072 -6.77138,-11.849907 -2.71254,-2.830559 -7.45837,-2.709104 -11.36624,-3.022936 -7.26783,-0.583663 -30.63977,5.442134 -21.76513,2.176511 z"
       id="path8"
       sodipodi:nodetypes="sssssssssssssssscssssssssssssss" /></g></svg>
